PathFileType	4	(X/Y/Z)	0_coords_data.trc
DataRate	CameraRate	NumFrames	NumMarkers	Units	OrigDataRate	OrigDataStartFrame	OrigNumFrames
30.0	30.0	4	21	m	30.0	1	71
Frame#	Time	THUMB_TIP	THUMB_IP	THUMB_MCP	THUMB_CMC	INDEX_TIP	INDEX_DIP	INDEX_PIP	INDEX_MCP	MIDDLE_TIP	MIDDLE_DIP	MIDDLE_PIP	MIDDLE_MCP	RING_TIP	RING_DIP	RING_PIP	RING_MCP	PINKY_TIP	PINKY_DIP	PINKY_PIP	PINKY_MCP	WRIST
X1	Y1	Z1	X2	Y2	Z2	X3	Y3	Z3	X4	Y4	Z4	X5	Y5	Z5	X6	Y6	Z6	X7	Y7	Z7	X8	Y8	Z8	X9	Y9	Z9	X10	Y10	Z10	X11	Y11	Z11	X12	Y12	Z12	X13	Y13	Z13	X14	Y14	Z14	X15	Y15	Z15	X16	Y16	Z16	X17	Y17	Z17	X18	Y18	Z18	X19	Y19	Z19	X20	Y20	Z20	X21	Y21	Z21
0	-2.749317978547796e-18	0.4607433717215631	-0.027444337058992296	-0.1703801671756478	0.47415111578095903	-0.03197569695747482	-0.15227770389828804	0.46724318444054935	-0.030860827727170026	-0.1219485504119886	0.47211401810638265	-0.03123943801482343	-0.07760870790381241	0.5547238857868003	0.02611863045657936	-0.18478240893562053	0.5460034774186837	0.01688136602350887	-0.17187398441181384	0.5333809268663734	0.005517406335794783	-0.15333911266231465	0.5096448761508363	-0.006908630350886291	-0.12023579556733593	0.5902239330689631	0.04970597307393809	-0.1373778046931836	0.5784760138074602	0.03718347218013829	-0.13161817237939943	0.5575695859819055	0.019805437057212383	-0.12111413882836602	0.5219733755481182	0.0003739146011282335	-0.10236650807692893	0.5981924247078937	0.048814872150478195	-0.09409400715510835	0.5853264566362205	0.036349411325843684	-0.09207431608759475	0.5657970632553689	0.021155802304013482	-0.08925704470064783	0.5322955691733382	-0.0008392150196113723	-0.08391008844450493	0.600729171863774	0.013695879521534393	-0.0407484487781844	0.5850269637846536	0.00914569552606892	-0.045821562915222325	0.5654821738557465	0.005138901590270639	-0.05236058485974482	0.5322469165374393	-0.0026024859551665447	-0.06403842887554068	0.4622830810018608	-0.023011742144276925	-0.051989820119430985
1	0.03333333333333339	0.4610699537116695	-0.027956748054133285	-0.17036195744859156	0.47443748484356285	-0.03240588827620783	-0.15220942972592505	0.4674659159213985	-0.031065204054869566	-0.12190398809274355	0.4722430648486884	-0.03125823414372508	-0.07755275826186642	0.555023879464628	0.025289527222131847	-0.1848726541512749	0.5463265697280913	0.016079598033669318	-0.1719291612807144	0.5337339971333537	0.004805693548747825	-0.15331905579710342	0.5098660015857129	-0.007157399886873583	-0.12014015771430991	0.5903792942452764	0.04866279042153265	-0.13822094472788943	0.578692028033748	0.036168334770191324	-0.13227986852256046	0.5578509488157981	0.01889507892600828	-0.12147738734587987	0.522186095868683	5.771365418649754e-05	-0.10225969094707538	0.5987446851408599	0.047925398676976316	-0.09376162584447245	0.5858315134827441	0.035501538335578675	-0.09178736852956015	0.5662066505472628	0.020415586806413644	-0.08905628811637939	0.5324474744621249	-0.0012121637872682944	-0.08383333221859984	0.6009655098224356	0.012174033341281643	-0.04026885998263818	0.5852371229995758	0.007867200290465504	-0.045471651254915424	0.5656702403241003	0.00414115922899061	-0.05210985427775111	0.5323638238342135	-0.0029736634272815587	-0.0639818958112025	0.462283081001861	-0.023011742144276925	-0.051989820119430985
2	0.06666666666666676	0.4614331288463507	-0.028305739119818374	-0.1703586246907985	0.47473904829665936	-0.03271062965278715	-0.1521501253848574	0.46769856617798955	-0.031208300628205454	-0.1218682063730347	0.4723565435755832	-0.031271608404580764	-0.07750392751392376	0.5553488346733526	0.024541512338087212	-0.18491879941736816	0.5466677025304004	0.015361307767877475	-0.1719433692215826	0.534085813883706	0.004187259494449425	-0.15326593480822476	0.5100971780467964	-0.0073456714443487225	-0.12002179323944517	0.590535808297226	0.04772845062401454	-0.13893195157034216	0.5789086051990174	0.03525677117715187	-0.1328274155611347	0.558128802067669	0.018081566039709118	-0.12175394906192272	0.5223966658926715	-0.00019362297649394566	-0.1021228555673287	0.5992445354474952	0.047154644185982586	-0.09338448411727412	0.5862909924636536	0.034765035447328896	-0.09146008304970948	0.5665820604001487	0.019773789269382114	-0.08881423461331911	0.5325995550946209	-0.0015311971232215837	-0.08371445795441096	0.6011503292787942	0.010886742955238948	-0.039785493557490115	0.5854062569548935	0.006783218519352929	-0.045103883714658566	0.5658292865995082	0.0032888703849482948	-0.051837662877948276	0.5324753468432136	-0.0033039252598342506	-0.06387648338992591	0.4622830810018609	-0.023011742144276925	-0.051989820119430985
3	0.10000000000000014	0.46182138969024833	-0.028512108894225396	-0.1703681651703206	0.47504929030787013	-0.03290503796776456	-0.1521000284452691	0.4679363674416578	-0.03129600100864194	-0.1218405286416786	0.4724562051932253	-0.03127910664973388	-0.07746192139358948	0.5556888031122679	0.023876709930123252	-0.18492673059559261	0.5470179528289675	0.014727442247606248	-0.17192260600997578	0.5344308845430528	0.0036589786997531792	-0.1531858864557003	0.5103329476276465	-0.007478485052073713	-0.11988600009556627	0.5906921500693695	0.046901506352828304	-0.13952044947204673	0.5791233136439117	0.034447544681884046	-0.1332705804766477	0.5584001909982861	0.01736270882674551	-0.12195377343502423	0.5226021184233662	-0.0003859376190549213	-0.10196298880153004	0.5996939419769715	0.046494833080503284	-0.0929771889242964	0.5867060834208213	0.03413312588574491	-0.09110536485230203	0.566923791035727	0.019224339750478547	-0.08854236212824396	0.5327493761620893	-0.001800244556815489	-0.08356269780723002	0.6012943221032905	0.00981622204618382	-0.039307086552634096	0.5855425147292528	0.005879230039314454	-0.04472747937871746	0.565964579600279	0.0025718126965594834	-0.05155224791739621	0.5325805534098706	-0.0035948440486379685	-0.0637326662560675	0.462283081001861	-0.023011742144276925	-0.051989820119430985
